<svg width="335" height="691" viewBox="0 0 335 691" fill="none" xmlns="http://www.w3.org/2000/svg">
  <defs>
    <linearGradient id="jpowerFill" x1="52" y1="40" x2="248" y2="616" gradientUnits="userSpaceOnUse">
      <stop stop-color="#86ECFF" />
      <stop offset="0.35" stop-color="#2AD0FF" />
      <stop offset="1" stop-color="#0A92D2" />
    </linearGradient>
    <linearGradient id="jpowerEdge" x1="271" y1="67" x2="298" y2="594" gradientUnits="userSpaceOnUse">
      <stop stop-color="#D7FAFF" />
      <stop offset="1" stop-color="#54C8F3" />
    </linearGradient>
    <linearGradient id="jpowerInner" x1="134" y1="86" x2="122" y2="553" gradientUnits="userSpaceOnUse">
      <stop stop-color="white" stop-opacity="0.96" />
      <stop offset="0.38" stop-color="white" stop-opacity="0.88" />
      <stop offset="1" stop-color="#D7F3FF" stop-opacity="0.25" />
    </linearGradient>
    <filter id="softShadow" x="0" y="0" width="335" height="691" filterUnits="userSpaceOnUse" color-interpolation-filters="sRGB">
      <feFlood flood-opacity="0" result="BackgroundImageFix"/>
      <feColorMatrix in="SourceAlpha" type="matrix" values="0 0 0 0 0 0 0 0 0 0 0 0 0 0 0 0 0 0 127 0" result="hardAlpha"/>
      <feOffset dx="10" dy="12"/>
      <feGaussianBlur stdDeviation="10"/>
      <feComposite in2="hardAlpha" operator="out"/>
      <feColorMatrix type="matrix" values="0 0 0 0 0.00392157 0 0 0 0 0.278431 0 0 0 0 0.45098 0 0 0 0.28 0"/>
      <feBlend mode="normal" in2="BackgroundImageFix" result="effect1_dropShadow_0_1"/>
      <feBlend mode="normal" in="SourceGraphic" in2="effect1_dropShadow_0_1" result="shape"/>
    </filter>
  </defs>
  <g filter="url(#softShadow)">
    <path d="M102.886 22C101.34 22 99.975 22.998 99.5062 24.4715L84.8035 70.6576C84.1094 72.8384 85.7368 75.052 88.0253 75.052H231.144C248.032 75.052 261.721 88.7406 261.721 105.629V504.666C261.721 554.538 221.293 594.966 171.421 594.966C121.549 594.966 81.1203 554.538 81.1203 504.666V452.698C81.1203 450.132 79.0405 448.052 76.4747 448.052H24.5056C21.9399 448.052 19.86 450.132 19.86 452.698V508.885C19.86 608.63 100.714 689.484 200.459 689.484C300.203 689.484 381.058 608.63 381.058 508.885V100.171C381.058 57.1738 346.194 22.3098 303.197 22.3098L102.886 22Z" fill="url(#jpowerFill)"/>
    <path d="M81.8051 28.6066C82.4038 26.7756 84.1124 25.5369 86.0388 25.5369H300.528C339.601 25.5369 371.279 57.2151 371.279 96.2882V510.55C371.279 601.48 297.562 675.197 206.632 675.197C115.701 675.197 41.9844 601.48 41.9844 510.55V453.84C41.9844 450.53 44.6679 447.846 47.9784 447.846H82.4953C85.8058 447.846 88.4893 450.53 88.4893 453.84V506.509C88.4893 571.357 141.053 623.92 205.9 623.92C270.748 623.92 323.311 571.357 323.311 506.509V103.56C323.311 84.7953 308.098 69.5817 289.333 69.5817H84.248C80.1237 69.5817 77.2181 65.5292 78.5038 61.6104L81.8051 28.6066Z" fill="url(#jpowerEdge)" fill-opacity="0.48"/>
    <path d="M148.118 137.505C151.296 127.353 160.705 120.451 171.342 120.451H291.82C302.349 120.451 310.846 128.948 310.846 139.477V151.658C310.846 162.187 302.349 170.684 291.82 170.684H200.339L145.63 342.314H200.169L170.446 435.505C167.434 444.949 176.421 453.87 185.843 450.789L216.491 440.771L144.85 564.113C138.753 574.611 123.555 572.269 120.786 560.454L90.0601 429.326C88.6144 423.155 93.2992 417.228 99.6372 417.228H134.411L176.266 285.349H121.351C114.956 285.349 110.266 279.321 111.881 273.134L148.118 137.505Z" fill="url(#jpowerInner)"/>
    <path d="M179.501 145.802H286.354C291.797 145.802 294.139 152.706 289.816 156.012L182.408 238.167C178.686 241.015 173.285 238.361 173.285 233.674V193.813H142.541C136.413 193.813 132.022 187.919 133.813 182.059L143.038 151.886C144.13 148.311 147.43 145.802 151.168 145.802H179.501Z" fill="white" fill-opacity="0.92"/>
    <path d="M291.255 145.802C297.564 145.802 302.678 150.916 302.678 157.225V509.413C302.678 562.049 259.998 604.728 207.363 604.728C154.728 604.728 112.048 562.049 112.048 509.413V499.072" stroke="#DBF7FF" stroke-width="8.89474" stroke-linecap="round"/>
  </g>
</svg>
